Coordinates
version=1
nRows=26
nColumns=24
inDegrees=yes

Units are S.I. units (second, meters, Newtons, ...)
Angles are in degrees.

endheader
time	pelvis_tilt	pelvis_list	pelvis_rotation	pelvis_tx	pelvis_ty	pelvis_tz	hip_flexion_r	hip_adduction_r	hip_rotation_r	knee_angle_r	ankle_angle_r	subtalar_angle_r	mtp_angle_r	hip_flexion_l	hip_adduction_l	hip_rotation_l	knee_angle_l	ankle_angle_l	subtalar_angle_l	mtp_angle_l	lumbar_extension	lumbar_bending	lumbar_rotation
      3.97500000	    -10.71841302	     13.98300119	     -1.76264821	     -0.25460897	     -0.04452553	      0.65107437	     22.33333120	    -16.74806166	      4.54084053	    -66.95868104	    -28.97374888	     -1.44478137	     55.38316130	     30.29028360	     16.02138992	      1.26133432	    -30.38191384	     11.71206505	     -7.17085598	    -22.94706287	      9.00825478	    -15.67291028	      0.91521535
      3.98000000	    -10.59622877	     13.93052860	     -1.69320873	     -0.24737494	     -0.04297068	      0.65062341	     23.16779451	    -16.71074738	      4.48052477	    -67.85466451	    -28.21743787	     -1.92005143	     54.99773718	     29.36919967	     16.13258643	      1.61730678	    -29.88391669	     11.91112037	     -7.19655082	    -22.78612749	      8.97934153	    -15.63286841	      0.64006345
      3.98500000	    -10.44402761	     13.79098471	     -1.63067055	     -0.24018774	     -0.04129604	      0.65008121	     23.94131142	    -16.57747044	      4.37984724	    -68.65752402	    -27.61556101	     -2.47068342	     54.22510337	     28.38641935	     16.19379016	      2.12827951	    -29.33870413	     11.97332587	     -7.50008048	    -22.67871601	      8.90381120	    -15.48352883	      0.39362490
      3.99000000	    -10.30969523	     13.64773049	     -1.55104710	     -0.23303135	     -0.03966718	      0.64955418	     24.71540527	    -16.43511789	      4.27449651	    -69.38789070	    -27.07063933	     -2.99694098	     53.41852730	     27.42571873	     16.23624371	      2.60981669	    -28.79557743	     12.06875498	     -7.74501230	    -22.62521579	      8.84079150	    -15.33477161	      0.11591080
      3.99500000	    -10.17431492	     13.49111901	     -1.45316800	     -0.22591487	     -0.03806615	      0.64905680	     25.46444057	    -16.27300362	      4.14895952	    -70.05463914	    -26.54292629	     -3.50541412	     52.36362778	     26.46741474	     16.25305936	      3.05949676	    -28.25738672	     12.21711101	     -7.94768314	    -22.69046827	      8.76194555	    -15.18005014	     -0.19734534
      4.00000000	    -10.09425302	     13.30729919	     -1.38824751	     -0.21883623	     -0.03647421	      0.64845318	     26.26733009	    -16.05982643	      4.08216929	    -70.59690804	    -26.24146191	     -4.08847221	     51.90062541	     25.54792324	     16.25014286	      3.60053274	    -27.66524513	     12.23748014	     -8.38087311	    -22.83364620	      8.75258469	    -14.96238444	     -0.44012941
      4.00500000	     -9.94816309	     13.13289271	     -1.21736405	     -0.21172506	     -0.03487582	      0.64786405	     26.93138960	    -15.91507595	      3.84060425	    -71.09939588	    -25.83960109	     -4.78345731	     50.70131383	     24.54925623	     16.26995586	      4.14466874	    -27.09983384	     12.44870143	     -8.57709419	    -23.22699026	      8.64066351	    -14.80045077	     -0.84044413
      4.01000000	     -9.85062554	     12.92748206	     -1.10194933	     -0.20475770	     -0.03335575	      0.64721993	     27.66774055	    -15.69700671	      3.69092593	    -71.52812830	    -25.54444288	     -5.41690337	     49.67004090	     23.61301317	     16.24914680	      4.76011801	    -26.53519928	     12.65659685	     -8.88012954	    -23.80145365	      8.57091427	    -14.57086442	     -1.15060368
      4.01500000	     -9.80608823	     12.73660587	     -0.97633322	     -0.19778380	     -0.03189908	      0.64650805	     28.43428272	    -15.50111651	      3.54392948	    -71.84830006	    -25.29641783	     -6.16217315	     49.21019997	     22.72616281	     16.23668273	      5.33159327	    -25.92568014	     12.63287564	     -9.32497589	    -24.03539902	      8.56810021	    -14.34370545	     -1.47980959
      4.02000000	     -9.68261000	     12.53508803	     -0.76983392	     -0.19080742	     -0.03043640	      0.64582345	     29.05700494	    -15.34971394	      3.23774046	    -72.13262627	    -24.92485018	     -6.98438176	     47.97717302	     21.75777021	     16.21492887	      5.91084005	    -25.36338871	     12.81671085	     -9.50166486	    -24.44392432	      8.44735630	    -14.14557548	     -1.92016622
      4.02500000	     -9.60493443	     12.28687385	     -0.64517929	     -0.18396249	     -0.02907272	      0.64515725	     29.75251992	    -15.08940246	      3.04026048	    -72.36716026	    -24.52361088	     -7.62657431	     46.59927802	     20.86183694	     16.11876433	      6.49543292	    -24.81398850	     13.01922431	     -9.76423617	    -25.01247415	      8.37688669	    -13.85960762	     -2.25609555
      4.03000000	     -9.58655247	     12.05173737	     -0.48054619	     -0.17710840	     -0.02778979	      0.64435852	     30.47561219	    -14.87734612	      2.81425411	    -72.47874749	    -24.24771386	     -8.42932979	     46.01131103	     20.01957976	     16.05094534	      7.13969364	    -24.23360450	     12.98760312	    -10.18958356	    -25.21292855	      8.36979860	    -13.58243817	     -2.62405169
      4.03500000	     -9.51330449	     11.78113302	     -0.27505548	     -0.17031559	     -0.02651399	      0.64358200	     31.10088503	    -14.66560363	      2.47550249	    -72.54192567	    -23.90596525	     -9.30094803	     44.91486196	     19.13163594	     15.94282750	      7.80065325	    -23.68798075	     13.02355392	    -10.54033242	    -25.46820658	      8.27166093	    -13.28385566	     -3.06129219
      4.04000000	     -9.41352647	     11.55524816	     -0.13952218	     -0.16356847	     -0.02539115	      0.64300911	     31.72833737	    -14.45257731	      2.21471048	    -72.63899651	    -23.23308229	     -9.84227796	     42.77160878	     18.26301657	     15.82337381	      8.25863679	    -23.19436430	     13.33346393	    -10.69156800	    -26.18401824	      8.15352416	    -13.03545633	     -3.41024564
      4.04500000	     -9.38294349	     11.29823819	      0.09018581	     -0.15690391	     -0.02434806	      0.64217032	     32.37690233	    -14.28556749	      1.85515902	    -72.57894303	    -22.87295194	    -10.71274282	     41.89160783	     17.46575705	     15.72572433	      8.92484959	    -22.70357119	     13.34991422	    -11.13635998	    -26.56336217	      8.08249075	    -12.75265186	     -3.87656243
      4.05000000	     -9.29334851	     11.02001992	      0.20860489	     -0.15019050	     -0.02332510	      0.64157305	     32.97166310	    -14.02137741	      1.58005740	    -72.51307584	    -22.27895378	    -11.23698048	     39.87993442	     16.62104689	     15.54473863	      9.45719208	    -22.22891309	     13.67698686	    -11.37025805	    -27.48500846	      7.97786202	    -12.43025571	     -4.19080752
      4.05500000	     -9.28214620	     10.73919450	      0.44450969	     -0.14363186	     -0.02246684	      0.64072375	     33.61074773	    -13.84622723	      1.19759341	    -72.32429291	    -21.96203216	    -12.08776553	     39.02834335	     15.87712174	     15.41000662	     10.14700158	    -21.78207824	     13.70534190	    -11.82644914	    -27.87588839	      7.90920267	    -12.11365708	     -4.66141292
      4.06000000	     -9.18711746	     10.46223594	      0.55138278	     -0.13699113	     -0.02160950	      0.64016474	     34.17434900	    -13.58837436	      0.91623484	    -72.13697735	    -21.40077284	    -12.58000277	     36.96603373	     15.05587653	     15.21397896	     10.68703632	    -21.34558640	     14.04826499	    -12.04977832	    -28.82234631	      7.79135935	    -11.79281201	     -4.96060592
      4.06500000	     -9.12696759	     10.18100850	      0.71633939	     -0.13045352	     -0.02086001	      0.63947574	     34.74653363	    -13.37492820	      0.57849844	    -71.85225235	    -21.03012736	    -13.25715958	     35.51767612	     14.28381663	     15.03601493	     11.32491620	    -20.93047856	     14.30755484	    -12.36733874	    -29.68717494	      7.68202063	    -11.46841525	     -5.33761383
      4.07000000	     -9.08014280	      9.90603592	      0.87570785	     -0.12396119	     -0.02021234	      0.63881664	     35.32173912	    -13.16446548	      0.25369671	    -71.50674290	    -20.70425434	    -13.92003715	     34.12522780	     13.54095763	     14.85104641	     11.94026743	    -20.52798951	     14.53242701	    -12.67025259	    -30.38616473	      7.58229315	    -11.14907797	     -5.70705570
      4.07500000	     -9.07616013	      9.63026854	      1.08481337	     -0.11755124	     -0.01968718	      0.63808903	     35.91565754	    -12.98992909	     -0.10875656	    -71.07359044	    -20.55039047	    -14.72653741	     33.25002547	     12.86104430	     14.67074045	     12.58021134	    -20.14603812	     14.59929165	    -13.02945748	    -30.65282530	      7.50937099	    -10.83714693	     -6.14066007
      4.08000000	     -8.97930952	      9.37994344	      1.16549604	     -0.11106422	     -0.01913781	      0.63763047	     36.42165762	    -12.74950942	     -0.35868327	    -70.63805508	    -20.14939491	    -15.19072411	     31.28277905	     12.07996973	     14.45697411	     13.06114095	    -19.73715293	     14.88564444	    -13.23276574	    -31.36059969	      7.37023516	    -10.53583893	     -6.41253666
      4.08500000	     -8.95615691	      9.14429644	      1.34736757	     -0.10467412	     -0.01872220	      0.63700029	     36.96512892	    -12.60299064	     -0.68989462	    -70.08382532	    -20.07481820	    -16.00202431	     30.35790512	     11.38163955	     14.28308792	     13.64045858	    -19.33448991	     14.96676494	    -13.55795926	    -31.68200693	      7.28066295	    -10.26289393	     -6.79216215
      4.09000000	     -8.85935302	      8.92339043	      1.40497013	     -0.09826893	     -0.01832766	      0.63661778	     37.44405415	    -12.37285401	     -0.89426821	    -69.53411178	    -19.69502136	    -16.39820901	     28.44746976	     10.61732003	     14.07326208	     14.04992855	    -18.92671189	     15.28666221	    -13.75649791	    -32.48758491	      7.13114358	     -9.99022578	     -7.06911909
      4.09500000	     -8.83044333	      8.71975838	      1.54855040	     -0.09196575	     -0.01805115	      0.63610328	     37.95714020	    -12.22044657	     -1.15295348	    -68.86433590	    -19.67313432	    -17.16160813	     27.59484065	      9.92959437	     13.89922108	     14.53627037	    -18.52088245	     15.37128405	    -14.06079389	    -32.78633827	      7.02462879	     -9.74797300	     -7.44004405
      4.10000000	     -8.72694018	      8.54555664	      1.59938487	     -0.08556366	     -0.01777000	      0.63579218	     38.38445569	    -12.02942115	     -1.32338713	    -68.19571870	    -19.25874950	    -17.44238711	     25.72204850	      9.15341320	     13.71008869	     14.87968356	    -18.09078835	     15.68492108	    -14.18295018	    -33.54264876	      6.86857229	     -9.52358580	     -7.66648446
